<mxfile host="app.diagrams.net" modified="2024-05-27T03:26:26.341Z" agent="Mozilla/5.0 (Windows NT 10.0; Win64; x64) AppleWebKit/537.36 (KHTML, like Gecko) Chrome/125.0.0.0 Safari/537.36 Edg/125.0.0.0" etag="DrNZcVAx4h8qoKGO5JlS" version="24.4.8" type="device">
  <diagram name="Página-1" id="ZB40KCqNlz2eNg3kX1Rt">
    <mxGraphModel dx="1379" dy="788" grid="1" gridSize="10" guides="1" tooltips="1" connect="1" arrows="1" fold="1" page="1" pageScale="1" pageWidth="827" pageHeight="1169" math="0" shadow="0">
      <root>
        <mxCell id="0" />
        <mxCell id="1" parent="0" />
        <mxCell id="zxpxqLZSb8RvYDFDIG1X-12" style="edgeStyle=orthogonalEdgeStyle;rounded=0;orthogonalLoop=1;jettySize=auto;html=1;" edge="1" parent="1">
          <mxGeometry relative="1" as="geometry">
            <mxPoint x="160" y="285" as="targetPoint" />
            <mxPoint x="160" y="285" as="sourcePoint" />
          </mxGeometry>
        </mxCell>
        <mxCell id="zxpxqLZSb8RvYDFDIG1X-1" value="«interface»&lt;br&gt;&lt;b&gt;Internet&lt;/b&gt;" style="html=1;whiteSpace=wrap;" vertex="1" parent="1">
          <mxGeometry x="160" y="280" width="150" height="50" as="geometry" />
        </mxCell>
        <mxCell id="zxpxqLZSb8RvYDFDIG1X-2" value="«interface»&lt;br&gt;ReprodutorMusical" style="html=1;whiteSpace=wrap;" vertex="1" parent="1">
          <mxGeometry x="350" y="280" width="160" height="50" as="geometry" />
        </mxCell>
        <mxCell id="zxpxqLZSb8RvYDFDIG1X-3" value="«interface»&lt;br&gt;&lt;b&gt;Telefone&lt;/b&gt;" style="html=1;whiteSpace=wrap;" vertex="1" parent="1">
          <mxGeometry x="560" y="280" width="170" height="50" as="geometry" />
        </mxCell>
        <mxCell id="zxpxqLZSb8RvYDFDIG1X-8" value="" style="rounded=0;whiteSpace=wrap;html=1;" vertex="1" parent="1">
          <mxGeometry x="160" y="330" width="150" height="90" as="geometry" />
        </mxCell>
        <mxCell id="zxpxqLZSb8RvYDFDIG1X-9" value="+mostrarPagina(): void" style="text;strokeColor=none;fillColor=none;align=left;verticalAlign=top;spacingLeft=4;spacingRight=4;overflow=hidden;rotatable=0;points=[[0,0.5],[1,0.5]];portConstraint=eastwest;whiteSpace=wrap;html=1;" vertex="1" parent="1">
          <mxGeometry x="162.5" y="330" width="140" height="40" as="geometry" />
        </mxCell>
        <mxCell id="zxpxqLZSb8RvYDFDIG1X-10" value="+novaPagina(): void" style="text;strokeColor=none;fillColor=none;align=left;verticalAlign=top;spacingLeft=4;spacingRight=4;overflow=hidden;rotatable=0;points=[[0,0.5],[1,0.5]];portConstraint=eastwest;whiteSpace=wrap;html=1;" vertex="1" parent="1">
          <mxGeometry x="162.5" y="360" width="130" height="26" as="geometry" />
        </mxCell>
        <mxCell id="zxpxqLZSb8RvYDFDIG1X-11" value="+atualizarPagina(): void" style="text;strokeColor=none;fillColor=none;align=left;verticalAlign=top;spacingLeft=4;spacingRight=4;overflow=hidden;rotatable=0;points=[[0,0.5],[1,0.5]];portConstraint=eastwest;whiteSpace=wrap;html=1;" vertex="1" parent="1">
          <mxGeometry x="160" y="390" width="147.5" height="26" as="geometry" />
        </mxCell>
        <mxCell id="zxpxqLZSb8RvYDFDIG1X-13" style="edgeStyle=orthogonalEdgeStyle;rounded=0;orthogonalLoop=1;jettySize=auto;html=1;" edge="1" parent="1">
          <mxGeometry relative="1" as="geometry">
            <mxPoint x="350" y="285" as="targetPoint" />
            <mxPoint x="350" y="285" as="sourcePoint" />
          </mxGeometry>
        </mxCell>
        <mxCell id="zxpxqLZSb8RvYDFDIG1X-15" value="" style="rounded=0;whiteSpace=wrap;html=1;" vertex="1" parent="1">
          <mxGeometry x="350" y="330" width="160" height="90" as="geometry" />
        </mxCell>
        <mxCell id="zxpxqLZSb8RvYDFDIG1X-16" value="+tocar(): void" style="text;strokeColor=none;fillColor=none;align=left;verticalAlign=top;spacingLeft=4;spacingRight=4;overflow=hidden;rotatable=0;points=[[0,0.5],[1,0.5]];portConstraint=eastwest;whiteSpace=wrap;html=1;" vertex="1" parent="1">
          <mxGeometry x="352.5" y="330" width="140" height="40" as="geometry" />
        </mxCell>
        <mxCell id="zxpxqLZSb8RvYDFDIG1X-17" value="+pausar(): void" style="text;strokeColor=none;fillColor=none;align=left;verticalAlign=top;spacingLeft=4;spacingRight=4;overflow=hidden;rotatable=0;points=[[0,0.5],[1,0.5]];portConstraint=eastwest;whiteSpace=wrap;html=1;" vertex="1" parent="1">
          <mxGeometry x="352.5" y="360" width="130" height="26" as="geometry" />
        </mxCell>
        <mxCell id="zxpxqLZSb8RvYDFDIG1X-18" value="+ selecionarMusica(): void" style="text;strokeColor=none;fillColor=none;align=left;verticalAlign=top;spacingLeft=4;spacingRight=4;overflow=hidden;rotatable=0;points=[[0,0.5],[1,0.5]];portConstraint=eastwest;whiteSpace=wrap;html=1;" vertex="1" parent="1">
          <mxGeometry x="350" y="390" width="150" height="26" as="geometry" />
        </mxCell>
        <mxCell id="zxpxqLZSb8RvYDFDIG1X-19" style="edgeStyle=orthogonalEdgeStyle;rounded=0;orthogonalLoop=1;jettySize=auto;html=1;" edge="1" parent="1">
          <mxGeometry relative="1" as="geometry">
            <mxPoint x="570" y="285" as="targetPoint" />
            <mxPoint x="570" y="285" as="sourcePoint" />
          </mxGeometry>
        </mxCell>
        <mxCell id="zxpxqLZSb8RvYDFDIG1X-21" value="" style="rounded=0;whiteSpace=wrap;html=1;" vertex="1" parent="1">
          <mxGeometry x="560" y="330" width="170" height="90" as="geometry" />
        </mxCell>
        <mxCell id="zxpxqLZSb8RvYDFDIG1X-22" value="+ligar(): void" style="text;strokeColor=none;fillColor=none;align=left;verticalAlign=top;spacingLeft=4;spacingRight=4;overflow=hidden;rotatable=0;points=[[0,0.5],[1,0.5]];portConstraint=eastwest;whiteSpace=wrap;html=1;" vertex="1" parent="1">
          <mxGeometry x="572.5" y="330" width="140" height="40" as="geometry" />
        </mxCell>
        <mxCell id="zxpxqLZSb8RvYDFDIG1X-23" value="+atender(): void" style="text;strokeColor=none;fillColor=none;align=left;verticalAlign=top;spacingLeft=4;spacingRight=4;overflow=hidden;rotatable=0;points=[[0,0.5],[1,0.5]];portConstraint=eastwest;whiteSpace=wrap;html=1;" vertex="1" parent="1">
          <mxGeometry x="572.5" y="360" width="130" height="26" as="geometry" />
        </mxCell>
        <mxCell id="zxpxqLZSb8RvYDFDIG1X-24" value="+iniciarCorreioVoz(): void" style="text;strokeColor=none;fillColor=none;align=left;verticalAlign=top;spacingLeft=4;spacingRight=4;overflow=hidden;rotatable=0;points=[[0,0.5],[1,0.5]];portConstraint=eastwest;whiteSpace=wrap;html=1;" vertex="1" parent="1">
          <mxGeometry x="570" y="390" width="147.5" height="26" as="geometry" />
        </mxCell>
        <mxCell id="zxpxqLZSb8RvYDFDIG1X-27" value="iPhone" style="html=1;whiteSpace=wrap;" vertex="1" parent="1">
          <mxGeometry x="359" y="550" width="110" height="50" as="geometry" />
        </mxCell>
        <mxCell id="zxpxqLZSb8RvYDFDIG1X-28" value="" style="endArrow=block;dashed=1;endFill=0;endSize=12;html=1;rounded=0;exitX=1;exitY=0;exitDx=0;exitDy=0;entryX=0.5;entryY=1;entryDx=0;entryDy=0;" edge="1" parent="1" source="zxpxqLZSb8RvYDFDIG1X-27" target="zxpxqLZSb8RvYDFDIG1X-21">
          <mxGeometry width="160" relative="1" as="geometry">
            <mxPoint x="330" y="510" as="sourcePoint" />
            <mxPoint x="490" y="510" as="targetPoint" />
          </mxGeometry>
        </mxCell>
        <mxCell id="zxpxqLZSb8RvYDFDIG1X-29" value="" style="endArrow=block;dashed=1;endFill=0;endSize=12;html=1;rounded=0;exitX=0.5;exitY=0;exitDx=0;exitDy=0;entryX=0.5;entryY=1;entryDx=0;entryDy=0;" edge="1" parent="1" source="zxpxqLZSb8RvYDFDIG1X-27" target="zxpxqLZSb8RvYDFDIG1X-15">
          <mxGeometry width="160" relative="1" as="geometry">
            <mxPoint x="330" y="510" as="sourcePoint" />
            <mxPoint x="490" y="510" as="targetPoint" />
          </mxGeometry>
        </mxCell>
        <mxCell id="zxpxqLZSb8RvYDFDIG1X-31" value="" style="endArrow=block;dashed=1;endFill=0;endSize=12;html=1;rounded=0;exitX=0;exitY=0;exitDx=0;exitDy=0;entryX=0.5;entryY=1;entryDx=0;entryDy=0;" edge="1" parent="1" source="zxpxqLZSb8RvYDFDIG1X-27" target="zxpxqLZSb8RvYDFDIG1X-8">
          <mxGeometry width="160" relative="1" as="geometry">
            <mxPoint x="330" y="510" as="sourcePoint" />
            <mxPoint x="490" y="510" as="targetPoint" />
          </mxGeometry>
        </mxCell>
      </root>
    </mxGraphModel>
  </diagram>
</mxfile>
